# Blender 5.0.0
# www.blender.org
mtllib Base.mtl
o obj_0
v 1.104493 -20.099997 -1.099691
v 1.104493 0.000001 -1.099691
v 1.104493 -0.000001 1.100310
v 1.104493 -20.100000 1.100310
v -1.095507 -20.100000 1.100310
v -1.095507 -0.000001 1.100310
v -1.095507 0.000001 -1.099691
v -1.095507 -20.099997 -1.099691
vn 1.0000 -0.0000 -0.0000
vn -1.0000 -0.0000 -0.0000
vn -0.0000 -1.0000 -0.0000
vn -0.0000 1.0000 -0.0000
vn -0.0000 -0.0000 -1.0000
vn -0.0000 -0.0000 1.0000
s 1
usemtl color_base
f 1//1 2//1 3//1
f 1//1 3//1 4//1
f 7//2 8//2 6//2
f 5//2 6//2 8//2
f 1//3 4//3 5//3 8//3
f 2//4 7//4 6//4
f 2//4 6//4 3//4
f 2//5 8//5 7//5
f 1//5 8//5 2//5
f 6//6 4//6 3//6
f 5//6 4//6 6//6
